<svg xmlns="http://www.w3.org/2000/svg" width="20.377" height="24.149" viewBox="0 0 20.377 24.149">
  <g id="leetcode" transform="translate(0.295 0.15)">
    <g id="leetcode-2" data-name="leetcode" transform="translate(-1.917 -0.001)">
      <path id="Path_1" data-name="Path 1" d="M22,14.355a1.306,1.306,0,0,0-1.26-1.346H10.676a1.349,1.349,0,0,0,0,2.692H20.74A1.3,1.3,0,0,0,22,14.355Z" fill="#b3b1b0"/>
      <path id="Path_2" data-name="Path 2" d="M3.482,18.187,7.8,22.548A5.237,5.237,0,0,0,11.6,24,5.266,5.266,0,0,0,15.4,22.506l2.588-2.637a1.352,1.352,0,0,0-.039-1.9,1.325,1.325,0,0,0-1.884-.039l-2.676,2.607a2.463,2.463,0,0,1-1.809.662,2.468,2.468,0,0,1-1.81-.662l-4.3-4.363a2.632,2.632,0,0,1-.7-1.863,2.538,2.538,0,0,1,.7-1.824L9.76,8.107a2.485,2.485,0,0,1,1.822-.645,2.466,2.466,0,0,1,1.809.662l2.676,2.606a1.326,1.326,0,0,0,1.885-.038,1.353,1.353,0,0,0,.039-1.9L15.4,6.155a4.994,4.994,0,0,0-2.392-1.33l-.034-.007,2.447-2.5a1.351,1.351,0,0,0-.037-1.9A1.329,1.329,0,0,0,13.5.376L3.482,10.476A5.355,5.355,0,0,0,2,14.311,5.45,5.45,0,0,0,3.482,18.187Z" fill="#e7a41f"/>
      <path id="Path_3" data-name="Path 3" d="M8.115,22.814a2.109,2.109,0,0,1-.474-.361c-1.327-1.333-2.66-2.66-3.984-4a5.786,5.786,0,0,1-.786-7.32,6,6,0,0,1,.839-1L13.333.489A1.419,1.419,0,0,1,15.412.422a1.443,1.443,0,0,1-.078,2.066q-1.154,1.164-2.309,2.325A.8.8,0,0,1,12.8,5.1c-.863.876-1.75,1.729-2.6,2.618-.111.116-.262.186-.372.3C8.4,9.446,6.964,10.853,5.561,12.3a2.9,2.9,0,0,0,.068,4.127c1.308,1.336,2.639,2.65,3.961,3.974.067.067.136.132.2.2a1.371,1.371,0,0,1,.183,1.671,1.483,1.483,0,0,1-1.333.728A1.135,1.135,0,0,1,8.115,22.814Z" fill="#fff" stroke="#bababa" stroke-width="0.3"/>
    </g>
  </g>
</svg>
